<?xml version="1.0" encoding="UTF-8"?>
<svg width="18px" height="18px" viewBox="0 0 18 18" version="1.1" xmlns="http://www.w3.org/2000/svg" xmlns:xlink="http://www.w3.org/1999/xlink">
    <!-- Generator: Sketch 63 (92445) - https://sketch.com -->
    <title>table</title>
    <desc>Created with Sketch.</desc>
    <defs>
        <filter x="-2.6%" y="-4.4%" width="105.3%" height="109.9%" filterUnits="objectBoundingBox" id="filter-1">
            <feOffset dx="0" dy="0" in="SourceAlpha" result="shadowOffsetOuter1"></feOffset>
            <feGaussianBlur stdDeviation="10" in="shadowOffsetOuter1" result="shadowBlurOuter1"></feGaussianBlur>
            <feColorMatrix values="0 0 0 0 0   0 0 0 0 0   0 0 0 0 0  0 0 0 0.1 0" type="matrix" in="shadowBlurOuter1" result="shadowMatrixOuter1"></feColorMatrix>
            <feMerge>
                <feMergeNode in="shadowMatrixOuter1"></feMergeNode>
                <feMergeNode in="SourceGraphic"></feMergeNode>
            </feMerge>
        </filter>
    </defs>
    <g id="页面1" stroke="none" stroke-width="1" fill="none" fill-rule="evenodd">
        <g id="2.8-病例管理" transform="translate(-156.000000, -338.000000)" fill-rule="nonzero">
            <g id="table" filter="url(#filter-1)" transform="translate(90.000000, 200.000000)">
                <g id="icon-lock" transform="translate(66.000000, 138.000000)">
                    <rect id="矩形" fill="#000000" opacity="0" x="1" y="1" width="16" height="16"></rect>
                    <path d="M14,8.25 L12.9375,8.25 L12.9375,4.75 C12.9375,3.6453125 12.0421875,2.75 10.9375,2.75 L7.0625,2.75 C5.9578125,2.75 5.0625,3.6453125 5.0625,4.75 L5.0625,8.25 L4,8.25 C3.7234375,8.25 3.5,8.4734375 3.5,8.75 L3.5,14.75 C3.5,15.0265625 3.7234375,15.25 4,15.25 L14,15.25 C14.2765625,15.25 14.5,15.0265625 14.5,14.75 L14.5,8.75 C14.5,8.4734375 14.2765625,8.25 14,8.25 Z M6.1875,4.75 C6.1875,4.2671875 6.5796875,3.875 7.0625,3.875 L10.9375,3.875 C11.4203125,3.875 11.8125,4.2671875 11.8125,4.75 L11.8125,8.25 L6.1875,8.25 L6.1875,4.75 Z M13.375,14.125 L4.625,14.125 L4.625,9.375 L13.375,9.375 L13.375,14.125 Z M8.5625,11.953125 L8.5625,12.78125 C8.5625,12.85 8.61875,12.90625 8.6875,12.90625 L9.3125,12.90625 C9.38125,12.90625 9.4375,12.85 9.4375,12.78125 L9.4375,11.953125 C9.6265625,11.8171875 9.75,11.5953125 9.75,11.34375 C9.75,10.9296875 9.4140625,10.59375 9,10.59375 C8.5859375,10.59375 8.25,10.9296875 8.25,11.34375 C8.25,11.5953125 8.3734375,11.8171875 8.5625,11.953125 Z" id="形状" fill="#DF201F"></path>
                </g>
            </g>
        </g>
    </g>
</svg>