<?xml version="1.0" encoding="UTF-8"?>
<svg width="20px" height="20px" viewBox="0 0 20 20" version="1.1" xmlns="http://www.w3.org/2000/svg" xmlns:xlink="http://www.w3.org/1999/xlink">
    <!-- Generator: Sketch 55.1 (78136) - https://sketchapp.com -->
    <title>形状</title>
    <desc>Created with Sketch.</desc>
    <g id="页面1" stroke="none" stroke-width="1" fill="none" fill-rule="evenodd">
        <g id="首页-展开" transform="translate(-177.000000, -304.000000)">
            <g id="等待摄片列表" transform="translate(90.000000, 142.000000)">
                <g id="table" transform="translate(20.000000, 101.000000)">
                    <g id="行">
                        <g id="流速预警" transform="translate(63.000000, 57.000000)">
                            <g id="icon_流速预警_" transform="translate(4.000000, 4.000000)">
                                <rect id="矩形" fill="#000000" opacity="0" x="2" y="2" width="16" height="16"></rect>
                                <path d="M13.59375,6.96875 L13.59375,4.875 L14.9375,4.875 C15.00625,4.875 15.0625,4.81875 15.0625,4.75 L15.0625,3.875 C15.0625,3.80625 15.00625,3.75 14.9375,3.75 L5.0625,3.75 C4.99375,3.75 4.9375,3.80625 4.9375,3.875 L4.9375,4.75 C4.9375,4.81875 4.99375,4.875 5.0625,4.875 L6.40625,4.875 L6.40625,6.96875 C6.40625,8.2421875 7.06875,9.3625 8.06875,10 C7.06875,10.6375 6.40625,11.7578125 6.40625,13.03125 L6.40625,15.125 L5.0625,15.125 C4.99375,15.125 4.9375,15.18125 4.9375,15.25 L4.9375,16.125 C4.9375,16.19375 4.99375,16.25 5.0625,16.25 L14.9375,16.25 C15.00625,16.25 15.0625,16.19375 15.0625,16.125 L15.0625,15.25 C15.0625,15.18125 15.00625,15.125 14.9375,15.125 L13.59375,15.125 L13.59375,13.03125 C13.59375,11.7578125 12.93125,10.6375 11.93125,10 C12.93125,9.3625 13.59375,8.2421875 13.59375,6.96875 Z M12.46875,13.03125 L12.46875,15.125 L7.53125,15.125 L7.53125,13.03125 C7.53125,12.371875 7.7875,11.7515625 8.2546875,11.2859375 C8.7203125,10.81875 9.340625,10.5625 10,10.5625 C10.659375,10.5625 11.2796875,10.81875 11.7453125,11.2859375 C12.2125,11.7515625 12.46875,12.371875 12.46875,13.03125 Z M12.46875,6.96875 C12.46875,7.628125 12.2125,8.2484375 11.7453125,8.7140625 C11.2796875,9.18125 10.659375,9.4375 10,9.4375 C9.340625,9.4375 8.7203125,9.18125 8.2546875,8.7140625 C7.7875,8.2484375 7.53125,7.628125 7.53125,6.96875 L7.53125,4.875 L12.46875,4.875 L12.46875,6.96875 Z" id="形状" fill="#DF9B81" fill-rule="nonzero"></path>
                            </g>
                        </g>
                    </g>
                </g>
            </g>
        </g>
    </g>
</svg>