<?xml version="1.0" encoding="UTF-8"?>
<svg width="20px" height="20px" viewBox="0 0 20 20" version="1.1" xmlns="http://www.w3.org/2000/svg" xmlns:xlink="http://www.w3.org/1999/xlink">
    <!-- Generator: Sketch 55.1 (78136) - https://sketchapp.com -->
    <title>形状</title>
    <desc>Created with Sketch.</desc>
    <g id="页面1" stroke="none" stroke-width="1" fill="none" fill-rule="evenodd">
        <g id="首页-展开" transform="translate(-187.000000, -422.000000)" fill="#7A93D4" fill-rule="nonzero">
            <g id="等待摄片列表" transform="translate(90.000000, 142.000000)">
                <g id="table" transform="translate(20.000000, 101.000000)">
                    <g id="行">
                        <g id="轮椅备份" transform="translate(73.000000, 175.000000)">
                            <g id="icon_床_" transform="translate(4.000000, 4.000000)">
                                <path d="M18,12.6770833 L18,10.6770833 C18,9.75660875 17.2538079,9.01041667 16.3333333,9.01041667 L7.5,9.01041667 L7.5,8.34375 C7.5,7.51532288 6.82842712,6.84375 6,6.84375 L3,6.84375 L3,4.51041667 C3,4.2342743 2.77614237,4.01041667 2.5,4.01041667 C2.22385763,4.01041667 2,4.2342743 2,4.51041667 L2,12.34375 C2.00095923,13.0292396 2.42153481,13.6442322 3.06,13.89375 L2.41666667,15.71375 C2.32461922,15.9742443 2.46117237,16.2600359 2.72166667,16.3520833 C2.98216098,16.4441308 3.26795254,16.3075776 3.36,16.0470833 L4.08,14.0104167 L15.92,14.0104167 L16.64,16.0470833 C16.7320475,16.3075776 17.017839,16.4441308 17.2783333,16.3520833 C17.5388276,16.2600359 17.6753808,15.9742443 17.5833333,15.71375 L16.9666667,13.97375 C17.5706492,13.8342788 17.9988476,13.296959 18,12.6770833 L18,12.6770833 Z M3,7.84375 L6,7.84375 C6.27614237,7.84375 6.5,8.06760763 6.5,8.34375 L6.5,9.01041667 L3,9.01041667 L3,7.84375 Z M17,12.6770833 C17,12.7654888 16.9648811,12.8502735 16.9023689,12.9127856 C16.8398568,12.9752977 16.7550722,13.0104167 16.6666667,13.0104167 L3.66666667,13.0104167 C3.29847684,13.0104167 3,12.7119398 3,12.34375 L3,10.0104167 L16.3333333,10.0104167 C16.7015232,10.0104167 17,10.3088935 17,10.6770833 L17,12.6770833 Z" id="形状"></path>
                            </g>
                        </g>
                    </g>
                </g>
            </g>
        </g>
    </g>
</svg>