<?xml version="1.0" encoding="UTF-8"?>
<svg width="20px" height="20px" viewBox="0 0 20 20" version="1.1" xmlns="http://www.w3.org/2000/svg" xmlns:xlink="http://www.w3.org/1999/xlink">
    <!-- Generator: Sketch 55.1 (78136) - https://sketchapp.com -->
    <title>形状</title>
    <desc>Created with Sketch.</desc>
    <g id="页面1" stroke="none" stroke-width="1" fill="none" fill-rule="evenodd">
        <g id="首页-展开" transform="translate(-177.000000, -363.000000)" fill="#7A93D4" fill-rule="nonzero">
            <g id="等待摄片列表" transform="translate(90.000000, 142.000000)">
                <g id="table" transform="translate(20.000000, 101.000000)">
                    <g id="行">
                        <g id="轮椅" transform="translate(63.000000, 116.000000)">
                            <g id="icon_轮椅_" transform="translate(4.000000, 4.000000)">
                                <path d="M8.52332949,10.9451855 C7.68634217,10.9451855 7.00688669,11.6262322 7.00688669,12.4616283 C7.00688669,13.2970244 7.68793339,13.9780711 8.52332949,13.9780711 C9.35872558,13.9780711 10.0397723,13.2970244 10.0397723,12.4616283 C10.0397723,11.6262322 9.36031679,10.9451855 8.52332949,10.9451855 L8.52332949,10.9451855 Z M8.52332949,13.1044855 C8.16848505,13.1044855 7.88047231,12.8164727 7.88047231,12.4616283 C7.88047231,12.1067839 8.16848505,11.8187711 8.52332949,11.8187711 C8.87817393,11.8187711 9.16618666,12.1067839 9.16618666,12.4616283 C9.16618666,12.8164727 8.87817391,13.1044855 8.52332949,13.1044855 Z" id="形状"></path>
                                <path d="M16.5670004,14.4984035 C16.3665053,14.2979084 16.1198645,14.17061 15.8604939,14.1133257 L15.4913284,8.81452768 L16.1707839,8.81452768 C16.412651,8.81452768 16.6083723,8.61880631 16.6083723,8.37693925 C16.6083723,8.1350722 16.412651,7.93935082 16.1707839,7.93935082 L8.17803243,7.93935082 L7.7086194,4.41000127 L7.69270708,4.33680466 C7.57813847,3.97082162 7.27580466,3.00017093 6.24468722,3.00017093 L4.57071258,3.00017093 C4.32884553,3.00017093 4.13312415,3.1958923 4.13312415,3.43775936 C4.13312415,3.67962641 4.32884553,3.87534778 4.57071258,3.87534778 L6.24468722,3.87534778 C6.45313842,3.87534778 6.64249489,3.92785839 6.84617239,4.56435065 L7.31717666,8.10483882 C7.31558544,8.10643004 7.31558544,8.10802128 7.31399419,8.10961251 C5.4076999,8.63949231 4.00105202,10.3882548 4.00105202,12.4616283 C4.00105202,14.9550867 6.02987108,16.9839058 8.52332949,16.9839058 C10.9531387,16.9839058 12.935812,15.0569255 13.0360596,12.6509847 L14.8818871,12.6509847 L14.9884996,14.1785662 C14.8134642,14.2501715 14.6495674,14.3551928 14.5079479,14.4968123 C14.232665,14.7720952 14.0814981,15.1380782 14.0814981,15.5263385 C14.0814981,15.91619 14.232665,16.2805818 14.5079479,16.5558647 C14.791187,16.8391038 15.1651262,16.9823145 15.5374741,16.9823145 C15.9098221,16.9823145 16.2837613,16.840695 16.5670004,16.5558647 C17.1334785,15.9893866 17.1334785,15.0648816 16.5670004,14.4984035 Z M8.52332949,16.1087289 C6.51201396,16.1087289 4.87622886,14.4729438 4.87622886,12.4616283 C4.87622886,10.4503128 6.51201396,8.81293644 8.52332949,8.81293644 C10.534645,8.81293644 12.1704313,10.4487215 12.1704313,12.4616283 C12.1720213,14.4729438 10.534645,16.1087289 8.52332949,16.1087289 Z M12.9883226,11.7758079 C12.8021487,10.5632902 12.1338318,9.50830423 11.1838671,8.81452768 L14.6161516,8.81452768 L14.8214203,11.7773991 L12.9883226,11.7773991 L12.9883226,11.7758079 Z M15.9480116,15.9384672 C15.7284218,16.1580571 15.3449352,16.1580571 15.1237542,15.9384672 C15.0139592,15.8286723 14.9534925,15.6822791 14.9534925,15.5263385 C14.9534925,15.3703979 15.0139592,15.2255959 15.1237542,15.1142098 C15.2208192,15.0171447 15.3449352,14.970999 15.4706424,14.9566779 L15.4785986,14.9566779 C15.4849635,14.9566779 15.4897372,14.9519042 15.4961021,14.9519042 C15.508832,14.950313 15.5215618,14.9439481 15.5342917,14.9439481 C15.6838673,14.9439481 15.8318518,15.0012324 15.9464204,15.1142098 C16.1755576,15.343347 16.1755576,15.7125125 15.9480116,15.9384672 L15.9480116,15.9384672 Z" id="形状"></path>
                            </g>
                        </g>
                    </g>
                </g>
            </g>
        </g>
    </g>
</svg>