<?xml version="1.0" encoding="UTF-8"?>
<svg width="18px" height="18px" viewBox="0 0 18 18" version="1.1" xmlns="http://www.w3.org/2000/svg" xmlns:xlink="http://www.w3.org/1999/xlink">
    <!-- Generator: Sketch 63 (92445) - https://sketch.com -->
    <title>7.1 自定义列</title>
    <desc>Created with Sketch.</desc>
    <g id="页面-1" stroke="none" stroke-width="1" fill="none" fill-rule="evenodd">
        <g id="7.1-自定义列" transform="translate(-1277.000000, -431.000000)" fill-rule="nonzero">
            <g id="icon_追加" transform="translate(1277.000000, 431.000000)">
                <rect id="矩形" fill="#000000" opacity="0" x="0" y="0" width="18" height="18"></rect>
                <path d="M12.3625,3.3 C12.6425195,3.3 12.8741289,3.50360742 12.9176506,3.77114473 L12.925,3.8625 L12.925,16.2375 C12.925,16.5175195 12.7213926,16.7491289 12.4538553,16.7926506 L12.3625,16.8 L6.40878906,16.8 C6.36425781,16.8 6.32050781,16.7945313 6.2780599,16.7841146 L6.21542969,16.7648438 L6.14160156,16.7648438 L6.14160156,16.7314453 L6.0732666,16.6877197 L6.0732666,16.6877197 L6.01152344,16.6347656 L2.96523437,13.5884766 C2.88085937,13.5041016 2.82573437,13.3961016 2.80705937,13.2797766 L2.8,13.1912109 L2.8,3.8625 C2.8,3.58248047 3.00360742,3.35087109 3.27114473,3.30734941 L3.3625,3.3 L12.3625,3.3 Z M11.659375,4.565625 L4.065625,4.565625 L4.065625,12.3351563 L6.56171875,12.3351563 C6.91782227,12.3351563 7.21188965,12.5995483 7.25842794,12.9428396 L7.26484375,13.0382813 L7.26484375,15.534375 L11.659375,15.534375 L11.659375,4.565625 Z M6.13984375,13.4601562 L4.62636719,13.4601562 L6.13984375,14.9753906 L6.13984375,13.4601562 Z M14.5625,1 C14.8736328,1 15.125,1.25136719 15.125,1.5625 L15.125,1.5625 L15.125,14.359375 C15.125,14.4367187 15.0617187,14.5 14.984375,14.5 L14.984375,14.5 L14,14.5 C13.9226563,14.5 13.859375,14.4367187 13.859375,14.359375 L13.859375,14.359375 L13.859375,2.265625 L5.140625,2.265625 C5.06328125,2.265625 5,2.20234375 5,2.125 L5,2.125 L5,1.140625 C5,1.06328125 5.06328125,1 5.140625,1 L5.140625,1 Z M8.24414062,7.015625 C8.31269531,7.015625 8.3671875,7.071875 8.3671875,7.14042969 L8.3671875,7.14042969 L8.3671875,8.6328125 L9.85253906,8.6328125 C9.92460937,8.6328125 9.984375,8.68730469 9.984375,8.75585938 L9.984375,8.75585938 L9.984375,9.49414062 C9.984375,9.5609375 9.92460937,9.6171875 9.85253906,9.6171875 L9.85253906,9.6171875 L8.3671875,9.6171875 L8.3671875,11.1095703 C8.3671875,11.178125 8.31269531,11.234375 8.24414062,11.234375 L8.24414062,11.234375 L7.50585938,11.234375 C7.4390625,11.234375 7.3828125,11.178125 7.3828125,11.1095703 L7.3828125,11.1095703 L7.3828125,9.6171875 L5.89746094,9.6171875 C5.82539062,9.6171875 5.765625,9.5609375 5.765625,9.49414062 L5.765625,9.49414062 L5.765625,8.75585938 C5.765625,8.68730469 5.82539062,8.6328125 5.89746094,8.6328125 L5.89746094,8.6328125 L7.3828125,8.6328125 L7.3828125,7.14042969 C7.3828125,7.071875 7.4390625,7.015625 7.50585938,7.015625 L7.50585938,7.015625 Z" id="形状" fill="#687671"></path>
            </g>
        </g>
    </g>
</svg>