<?xml version="1.0" encoding="UTF-8"?>
<svg width="18px" height="18px" viewBox="0 0 18 18" version="1.1" xmlns="http://www.w3.org/2000/svg" xmlns:xlink="http://www.w3.org/1999/xlink">
    <!-- Generator: Sketch 63 (92445) - https://sketch.com -->
    <title>7.1 自定义列</title>
    <desc>Created with Sketch.</desc>
    <g id="页面-1" stroke="none" stroke-width="1" fill="none" fill-rule="evenodd">
        <g id="7.1-自定义列" transform="translate(-1298.000000, -431.000000)" fill-rule="nonzero">
            <g id="icon_覆盖" transform="translate(1298.000000, 431.000000)">
                <rect id="矩形" fill="#000000" opacity="0" x="0" y="0" width="18" height="18"></rect>
                <path d="M13.21875,4.21875 L2.53125,4.21875 C2.22011719,4.21875 1.96875,4.47011719 1.96875,4.78125 L1.96875,15.46875 C1.96875,15.7798828 2.22011719,16.03125 2.53125,16.03125 L13.21875,16.03125 C13.5298828,16.03125 13.78125,15.7798828 13.78125,15.46875 L13.78125,4.78125 C13.78125,4.47011719 13.5298828,4.21875 13.21875,4.21875 Z M12.515625,5.484375 L12.515625,14.765625 L3.234375,14.765625 L3.234375,5.484375 L12.515625,5.484375 Z M15.9,11.44 C16.0104569,11.44 16.1,11.5295431 16.1,11.64 L16.1,12.51 C16.1,12.6204569 16.0104569,12.71 15.9,12.71 L14.9,12.71 C14.7895431,12.71 14.7,12.6204569 14.7,12.51 L14.7,11.64 C14.7,11.5295431 14.7895431,11.44 14.9,11.44 L15.9,11.44 Z M15.9,9.57 C16.0104569,9.57 16.1,9.65954305 16.1,9.77 L16.1,10.64 C16.1,10.7504569 16.0104569,10.84 15.9,10.84 L14.9,10.84 C14.7895431,10.84 14.7,10.7504569 14.7,10.64 L14.7,9.77 C14.7,9.65954305 14.7895431,9.57 14.9,9.57 L15.9,9.57 Z M15.9,7.7 C16.0104569,7.7 16.1,7.78954305 16.1,7.9 L16.1,8.77 C16.1,8.88045695 16.0104569,8.97 15.9,8.97 L14.9,8.97 C14.7895431,8.97 14.7,8.88045695 14.7,8.77 L14.7,7.9 C14.7,7.78954305 14.7895431,7.7 14.9,7.7 L15.9,7.7 Z M15.9,5.83 C16.0104569,5.83 16.1,5.91954305 16.1,6.03 L16.1,6.9 C16.1,7.01045695 16.0104569,7.1 15.9,7.1 L14.9,7.1 C14.7895431,7.1 14.7,7.01045695 14.7,6.9 L14.7,6.03 C14.7,5.91954305 14.7895431,5.83 14.9,5.83 L15.9,5.83 Z M15.9,3.96 C16.0104569,3.96 16.1,4.04954305 16.1,4.16 L16.1,5.03 C16.1,5.14045695 16.0104569,5.23 15.9,5.23 L14.9,5.23 C14.7895431,5.23 14.7,5.14045695 14.7,5.03 L14.7,4.16 C14.7,4.04954305 14.7895431,3.96 14.9,3.96 L15.9,3.96 Z M5.1,1.96 C5.21045695,1.96 5.3,2.04954305 5.3,2.16 L5.3,3.03 C5.3,3.14045695 5.21045695,3.23 5.1,3.23 L4.1,3.23 C3.98954305,3.23 3.9,3.14045695 3.9,3.03 L3.9,2.16 C3.9,2.04954305 3.98954305,1.96 4.1,1.96 L5.1,1.96 Z M6.9,1.96 C7.01045695,1.96 7.1,2.04954305 7.1,2.16 L7.1,3.03 C7.1,3.14045695 7.01045695,3.23 6.9,3.23 L5.9,3.23 C5.78954305,3.23 5.7,3.14045695 5.7,3.03 L5.7,2.16 C5.7,2.04954305 5.78954305,1.96 5.9,1.96 L6.9,1.96 Z M8.7,1.96 C8.81045695,1.96 8.9,2.04954305 8.9,2.16 L8.9,3.03 C8.9,3.14045695 8.81045695,3.23 8.7,3.23 L7.7,3.23 C7.58954305,3.23 7.5,3.14045695 7.5,3.03 L7.5,2.16 C7.5,2.04954305 7.58954305,1.96 7.7,1.96 L8.7,1.96 Z M10.5,1.96 C10.6104569,1.96 10.7,2.04954305 10.7,2.16 L10.7,3.03 C10.7,3.14045695 10.6104569,3.23 10.5,3.23 L9.5,3.23 C9.38954305,3.23 9.3,3.14045695 9.3,3.03 L9.3,2.16 C9.3,2.04954305 9.38954305,1.96 9.5,1.96 L10.5,1.96 Z M12.3,1.96 C12.4104569,1.96 12.5,2.04954305 12.5,2.16 L12.5,3.03 C12.5,3.14045695 12.4104569,3.23 12.3,3.23 L11.3,3.23 C11.1895431,3.23 11.1,3.14045695 11.1,3.03 L11.1,2.16 C11.1,2.04954305 11.1895431,1.96 11.3,1.96 L12.3,1.96 Z M14.1,1.96 C14.2104569,1.96 14.3,2.04954305 14.3,2.16 L14.3,3.03 C14.3,3.14045695 14.2104569,3.23 14.1,3.23 L13.1,3.23 C12.9895431,3.23 12.9,3.14045695 12.9,3.03 L12.9,2.16 C12.9,2.04954305 12.9895431,1.96 13.1,1.96 L14.1,1.96 Z M15.9,1.96 C16.0104569,1.96 16.1,2.04954305 16.1,2.16 L16.1,3.03 C16.1,3.14045695 16.0104569,3.23 15.9,3.23 L14.9,3.23 C14.7895431,3.23 14.7,3.14045695 14.7,3.03 L14.7,2.16 C14.7,2.04954305 14.7895431,1.96 14.9,1.96 L15.9,1.96 Z" id="形状" fill="#687671"></path>
                <rect id="矩形备份-21" fill="#687671" x="4.9" y="8" width="6" height="1.27" rx="0.2"></rect>
                <rect id="矩形备份-22" fill="#687671" x="4.9" y="11" width="6" height="1.27" rx="0.2"></rect>
            </g>
        </g>
    </g>
</svg>