<?xml version="1.0" encoding="UTF-8"?>
<svg width="16px" height="16px" viewBox="0 0 16 16" version="1.1" xmlns="http://www.w3.org/2000/svg" xmlns:xlink="http://www.w3.org/1999/xlink">
    <!-- Generator: Sketch 63 (92445) - https://sketch.com -->
    <title>icon</title>
    <desc>Created with Sketch.</desc>
    <defs>
        <filter x="-9.2%" y="-4.9%" width="118.3%" height="109.8%" filterUnits="objectBoundingBox" id="filter-1">
            <feOffset dx="0" dy="0" in="SourceAlpha" result="shadowOffsetOuter1"></feOffset>
            <feGaussianBlur stdDeviation="10" in="shadowOffsetOuter1" result="shadowBlurOuter1"></feGaussianBlur>
            <feColorMatrix values="0 0 0 0 0   0 0 0 0 0   0 0 0 0 0  0 0 0 0.1 0" type="matrix" in="shadowBlurOuter1" result="shadowMatrixOuter1"></feColorMatrix>
            <feMerge>
                <feMergeNode in="shadowMatrixOuter1"></feMergeNode>
                <feMergeNode in="SourceGraphic"></feMergeNode>
            </feMerge>
        </filter>
    </defs>
    <g id="页面1" stroke="none" stroke-width="1" fill="none" fill-rule="evenodd">
        <g id="弹框" transform="translate(-84.000000, -499.000000)" fill-rule="nonzero">
            <g id="下拉" filter="url(#filter-1)" transform="translate(52.000000, 50.000000)">
                <g id="icon" transform="translate(32.000000, 20.000000)">
                    <g id="icon-影像浏览" transform="translate(0.000000, 429.000000)">
                        <rect id="矩形" fill="#000000" opacity="0" x="0" y="0" width="16" height="16"></rect>
                        <path d="M7.96961806,1.55555556 L7.96961806,6.30075697 C7.96961806,7.23493084 7.28597468,7.74754343 6.76797467,7.95281361 L6.66683489,7.98980359 L6.65925278,11.1725239 C6.69532269,11.9485815 6.19070869,12.6231357 5.50543558,12.7149152 C5.47109312,12.7254624 3.72988618,13.1337868 2.9052213,13.2051054 C2.83965842,13.2136435 2.77721761,13.2136435 2.7161148,13.2136435 C2.38675581,13.2354489 2.06252323,13.1141032 1.81027686,12.8746288 C1.51628271,12.5158671 1.36516293,12.0374543 1.39192335,11.5502114 C1.36939367,10.3260849 1.89317134,6.43075166 4.47685107,4.17781922 L4.71020709,3.98340309 L4.77755398,3.93870339 C5.20649732,3.70004462 5.70716295,3.68699293 6.145454,3.90304406 C6.44211403,4.11542126 6.63300159,4.46826041 6.66786358,4.8567942 L6.67352498,5.00396293 L6.66906491,6.90344979 C6.86176596,6.81760521 7.00479856,6.63494683 7.05842661,6.41409455 L7.07760629,6.30075697 L7.07760629,1.55555556 L7.96961806,1.55555556 Z M9.30337386,1.55555556 L9.30337386,6.2998139 C9.30842076,6.45254256 9.37120187,6.59414419 9.47386094,6.69113561 L9.54009889,6.74370937 L9.53559842,5.04194269 C9.52294206,4.58501725 9.72540097,4.153988 10.0693549,3.90559037 C10.4624556,3.71345972 10.9053493,3.70242338 11.3028864,3.8700237 L11.4496509,3.94124262 L11.5176081,3.98593346 C14.3281555,6.20089148 14.890265,10.2928645 14.8655123,11.548225 C14.8924284,12.0355082 14.7399593,12.5139443 14.4433677,12.8728814 C14.1893124,13.11274 13.8624948,13.2347691 13.5302211,13.2138373 C13.4685645,13.2138373 13.4055579,13.2113266 13.3394009,13.2053009 C12.5068128,13.1344985 10.7498269,12.7257531 10.675119,12.7081781 C10.034741,12.605989 9.56292426,12.0021993 9.54701738,11.294367 L9.54999994,11.1515311 L9.54144905,7.8519416 C8.9411937,7.68078961 8.49933771,7.12139002 8.41565547,6.446176 L8.40327861,6.2998139 L8.40327861,1.55555556 L9.30337386,1.55555556 Z M5.26643175,4.83072612 L5.16767076,4.87499529 C2.68026715,6.85430517 2.17950874,10.4789195 2.20409142,11.5974844 C2.17831067,11.8098571 2.22383554,12.0253254 2.33201245,12.2029323 C2.46473632,12.2850527 2.61957251,12.3118941 2.76858273,12.2786133 C3.55113155,12.212014 5.32791345,11.8018231 5.34612285,11.7977867 C5.46557722,11.7880259 5.5765289,11.72565 5.65419762,11.6245905 C5.71244917,11.5487958 5.74833956,11.4559771 5.75829629,11.3585081 L5.75947615,11.2599473 L5.76357327,9.61161552 C5.18192505,9.89760536 4.57517186,10.1151318 3.9533018,10.260867 L3.57844565,10.3396666 L3.43049429,9.3442094 C4.15088618,9.22326132 4.8479831,8.97313607 5.49461956,8.60435022 L5.76858086,8.43906488 L5.76858086,8.0293785 C5.39756754,8.17156659 5.0200187,8.29152476 4.63757441,8.38876688 L4.25355903,8.47841899 L4.08056977,7.48800723 C4.54404361,7.39345144 4.99939071,7.25625556 5.44190563,7.07795434 L5.77131226,6.93654516 L5.7758646,5.07933392 C5.77876123,4.98003396 5.74602051,4.88351118 5.68481763,4.81091871 C5.54569626,4.77476927 5.40098221,4.7820225 5.26643175,4.83072612 Z M10.5867934,4.78866652 C10.5424915,4.7858407 10.4982816,4.79573693 10.4584486,4.81739607 C10.4090307,4.87974622 10.3781347,4.95662862 10.368886,5.03771176 L10.3669689,5.1198125 L10.3728855,7.0003386 C10.7511349,7.17469407 11.1411674,7.31535422 11.5392652,7.42106802 L11.8392926,7.49378139 L11.6572433,8.48117101 C11.3312669,8.4070136 11.0089287,8.31478434 10.6914415,8.20485429 L10.3756162,8.08903771 L10.3756162,8.6081859 C10.9475834,8.91394541 11.5510133,9.14032517 12.1721954,9.28252392 L12.4842023,9.34658598 L12.3367424,10.341032 C11.8006529,10.2396933 11.2735713,10.088042 10.7611711,9.88785327 L10.3797123,9.72863874 L10.3838084,11.2407208 C10.3671878,11.3684173 10.3971576,11.4981878 10.4670975,11.6013667 C10.5370374,11.7045456 10.6411921,11.7726423 10.7565544,11.7906147 C10.8148102,11.8022073 12.5911563,12.2119816 13.3739683,12.2785132 C13.5227901,12.3119528 13.6775064,12.2851249 13.8099764,12.2029091 C13.918206,12.025521 13.9637269,11.8102378 13.937866,11.5980762 C13.9601671,10.4796395 13.4618071,6.85921095 10.9741033,4.88140756 C10.8508065,4.82594949 10.7197647,4.79457164 10.5867934,4.78866652 Z" id="形状结合" fill="#303030"></path>
                    </g>
                </g>
            </g>
        </g>
    </g>
</svg>