<?xml version="1.0" encoding="UTF-8"?>
<svg width="18px" height="18px" viewBox="0 0 18 18" version="1.1" xmlns="http://www.w3.org/2000/svg" xmlns:xlink="http://www.w3.org/1999/xlink">
    <!-- Generator: Sketch 63 (92445) - https://sketch.com -->
    <title>title</title>
    <desc>Created with Sketch.</desc>
    <g id="页面1" stroke="none" stroke-width="1" fill="none" fill-rule="evenodd">
        <g id="2.1--书写报告-左侧-模板词库" transform="translate(-983.000000, -77.000000)" fill-rule="nonzero">
            <g id="报告界面" transform="translate(740.000000, 54.000000)">
                <g id="title" transform="translate(24.000000, 20.000000)">
                    <g id="but/报告/查看病理" transform="translate(204.000000, 0.000000)">
                        <g id="查看病理">
                            <g id="icon-病理" transform="translate(15.000000, 3.000000)">
                                <rect id="矩形" fill="#000000" opacity="0" x="0" y="0" width="18" height="18"></rect>
                                <path d="M7.06832568,12.23597 C6.74240465,12.23597 6.43567662,12.1089941 6.20501899,11.8784984 L3.36587794,9.03935732 C2.88983069,8.56331007 2.88983069,7.7887912 3.36587794,7.31274397 L9.17394207,1.50467982 C9.64998932,1.02863257 10.4245082,1.02877648 10.9005554,1.50453592 L13.7396965,4.34367698 C14.2154379,4.81986812 14.2154379,5.5942431 13.7399843,6.06998456 L12.0611466,7.74866041 C11.8251825,7.98462443 11.4429417,7.98462443 11.2069777,7.74866041 C10.9710136,7.51285828 10.9710136,7.13031165 11.2069777,6.89449154 L12.8855096,5.21595958 L10.0463865,2.35883071 L4.22004681,8.16691284 L7.05918786,11.0242036 L9.02027225,9.08110702 C9.25623628,8.84514299 9.6384771,8.84514299 9.87444112,9.08110702 C10.1104051,9.31690914 10.1104051,9.69945578 9.87444112,9.93527589 L7.93134455,11.8783545 C7.70099273,12.1088502 7.39453451,12.23597 7.06832568,12.23597 Z M15.9577007,16.8523061 L2.9199243,16.8523061 C2.58634048,16.8523061 2.59700773,16.5818415 2.59700773,16.2482577 C2.59700773,15.9146739 2.58634046,15.6442092 2.9199243,15.6442092 L15.9577007,15.6442092 C16.2912845,15.6442092 16.2805389,15.9146738 16.2805389,16.2482577 C16.2805389,16.5818415 16.2912845,16.8523061 15.9577007,16.8523061 Z" id="形状" fill="#303030"></path>
                                <path d="M10.5194838,16.563854 C10.3519634,16.563854 10.1853063,16.4946906 10.0658493,16.3590086 C9.84551672,16.1087443 9.86971032,15.727079 10.1198307,15.5064766 C11.2550771,14.5066065 11.8738755,13.4566044 11.9089697,12.4698654 C11.9387575,11.6432719 11.5721481,10.836303 10.8197362,10.0712277 C10.5858408,9.83335699 10.5890966,9.45095425 10.8268234,9.21705884 C11.0645502,8.98273171 11.4467911,8.98625732 11.6809923,9.22414604 C12.6613996,10.2209222 13.157791,11.3582191 13.116491,12.5130901 C13.0681218,13.8587758 12.3286971,15.1708422 10.9185612,16.4131519 C10.8083809,16.5103993 10.6664421,16.5639991 10.5194838,16.563854 L10.5194838,16.563854 Z" id="路径" fill="#303030"></path>
                                <path d="M10.4475146,10.4773563 C9.25859268,10.4773563 8.29146039,9.51008015 8.29146039,8.32115825 C8.29146039,7.13223635 9.25859268,6.16510406 10.4475146,6.16510406 C11.6364365,6.16510406 12.6035688,7.13223635 12.6035688,8.32115825 C12.6035688,9.51008015 11.6364545,10.4773563 10.4475146,10.4773563 Z M10.4475146,7.37320097 C9.92487892,7.37320097 9.4995573,7.79850462 9.4995573,8.32115825 C9.4995573,8.84395579 9.92486095,9.26925943 10.4475146,9.26925943 C10.9701682,9.26925943 11.3954719,8.84395579 11.3954719,8.32115825 C11.3954719,7.79852259 10.9701682,7.37320097 10.4475146,7.37320097 Z" id="形状" fill="#303030"></path>
                                <path d="M4.40881082,13.6226678 L1.6151789,10.8290359 C1.37928684,10.5931439 1.37928684,10.2106692 1.6151789,9.9747771 L2.2557606,9.33419542 L5.90365132,12.9820861 L5.26306964,13.6226678 C5.02715958,13.8585599 4.6447029,13.8585599 4.40881082,13.6226678 Z" id="路径" fill="#303030"></path>
                            </g>
                        </g>
                    </g>
                </g>
            </g>
        </g>
    </g>
</svg>