<?xml version="1.0" encoding="UTF-8"?>
<svg width="16px" height="16px" viewBox="0 0 16 16" version="1.1" xmlns="http://www.w3.org/2000/svg" xmlns:xlink="http://www.w3.org/1999/xlink">
    <!-- Generator: Sketch 63 (92445) - https://sketch.com -->
    <title>icon</title>
    <desc>Created with Sketch.</desc>
    <defs>
        <filter x="-9.2%" y="-4.9%" width="118.3%" height="109.8%" filterUnits="objectBoundingBox" id="filter-1">
            <feOffset dx="0" dy="0" in="SourceAlpha" result="shadowOffsetOuter1"></feOffset>
            <feGaussianBlur stdDeviation="10" in="shadowOffsetOuter1" result="shadowBlurOuter1"></feGaussianBlur>
            <feColorMatrix values="0 0 0 0 0   0 0 0 0 0   0 0 0 0 0  0 0 0 0.1 0" type="matrix" in="shadowBlurOuter1" result="shadowMatrixOuter1"></feColorMatrix>
            <feMerge>
                <feMergeNode in="shadowMatrixOuter1"></feMergeNode>
                <feMergeNode in="SourceGraphic"></feMergeNode>
            </feMerge>
        </filter>
    </defs>
    <g id="页面1" stroke="none" stroke-width="1" fill="none" fill-rule="evenodd">
        <g id="弹框" transform="translate(-84.000000, -422.000000)" fill-rule="nonzero">
            <g id="下拉" filter="url(#filter-1)" transform="translate(52.000000, 50.000000)">
                <g id="icon" transform="translate(32.000000, 20.000000)">
                    <g id="icon-报告预览" transform="translate(0.000000, 352.000000)">
                        <rect id="矩形" fill="#000000" opacity="0" x="0" y="0" width="16" height="16"></rect>
                        <path d="M3,10 C3.06875,10 3.125,10.05625 3.125,10.125 L3.125,10.125 L3.125,12.875 L5.875,12.875 C5.94375,12.875 6,12.93125 6,13 L6,13 L6,13.875 C6,13.94375 5.94375,14 5.875,14 L5.875,14 L3.0625,14 C2.475,14 2,13.525 2,12.9375 L2,12.9375 L2,10.125 C2,10.05625 2.05625,10 2.125,10 L2.125,10 Z M13.875,10 C13.94375,10 14,10.05625 14,10.125 L14,10.125 L14,12.9375 C14,13.525 13.525,14 12.9375,14 L12.9375,14 L10.125,14 C10.05625,14 10,13.94375 10,13.875 L10,13.875 L10,13 C10,12.93125 10.05625,12.875 10.125,12.875 L10.125,12.875 L12.875,12.875 L12.875,10.125 C12.875,10.05625 12.93125,10 13,10 L13,10 Z M7.94140625,5.5 C9.29070313,5.5 10.3213047,6.176875 11.0117766,7.49445449 L11.1179688,7.7078125 L11.1195313,7.709375 C11.2039063,7.8890625 11.2039063,8.096875 11.1195313,8.2765625 C10.4289063,9.7328125 9.36171875,10.484375 7.94140625,10.484375 C6.52109375,10.484375 5.45390625,9.734375 4.76328125,8.278125 C4.69578125,8.134375 4.68228125,7.971625 4.72278125,7.820275 L4.76328125,7.709375 C5.45390625,6.2515625 6.52109375,5.5 7.94140625,5.5 Z M7.94140625,6.5 C6.97109375,6.5 6.26171875,6.96875 5.73671875,7.9921875 C6.26328125,9.015625 6.97109375,9.484375 7.94140625,9.484375 C8.91171875,9.484375 9.62109375,9.015625 10.1460938,7.9921875 C9.61953125,6.96875 8.91171875,6.5 7.94140625,6.5 Z M7.94921875,7.125 C8.43246791,7.125 8.82421875,7.51675084 8.82421875,8 C8.82421875,8.48324916 8.43246791,8.875 7.94921875,8.875 C7.46596959,8.875 7.07421875,8.48324916 7.07421875,8 C7.07421875,7.51675084 7.46596959,7.125 7.94921875,7.125 Z M5.875,2 C5.94375,2 6,2.05625 6,2.125 L6,2.125 L6,3 C6,3.06875 5.94375,3.125 5.875,3.125 L5.875,3.125 L3.125,3.125 L3.125,5.875 C3.125,5.94375 3.06875,6 3,6 L3,6 L2.125,6 C2.05625,6 2,5.94375 2,5.875 L2,5.875 L2,3.0625 C2,2.475 2.475,2 3.0625,2 L3.0625,2 Z M12.9375,2 C13.525,2 14,2.475 14,3.0625 L14,3.0625 L14,5.875 C14,5.94375 13.94375,6 13.875,6 L13.875,6 L13,6 C12.93125,6 12.875,5.94375 12.875,5.875 L12.875,5.875 L12.875,3.125 L10.125,3.125 C10.05625,3.125 10,3.06875 10,3 L10,3 L10,2.125 C10,2.05625 10.05625,2 10.125,2 L10.125,2 Z" id="形状结合" fill="#303030"></path>
                    </g>
                </g>
            </g>
        </g>
    </g>
</svg>