<?xml version="1.0" encoding="UTF-8"?>
<svg width="16px" height="16px" viewBox="0 0 16 16" version="1.1" xmlns="http://www.w3.org/2000/svg" xmlns:xlink="http://www.w3.org/1999/xlink">
    <!-- Generator: Sketch 63 (92445) - https://sketch.com -->
    <title>icon</title>
    <desc>Created with Sketch.</desc>
    <defs>
        <filter x="-9.2%" y="-4.9%" width="118.3%" height="109.8%" filterUnits="objectBoundingBox" id="filter-1">
            <feOffset dx="0" dy="0" in="SourceAlpha" result="shadowOffsetOuter1"></feOffset>
            <feGaussianBlur stdDeviation="10" in="shadowOffsetOuter1" result="shadowBlurOuter1"></feGaussianBlur>
            <feColorMatrix values="0 0 0 0 0   0 0 0 0 0   0 0 0 0 0  0 0 0 0.1 0" type="matrix" in="shadowBlurOuter1" result="shadowMatrixOuter1"></feColorMatrix>
            <feMerge>
                <feMergeNode in="shadowMatrixOuter1"></feMergeNode>
                <feMergeNode in="SourceGraphic"></feMergeNode>
            </feMerge>
        </filter>
    </defs>
    <g id="页面1" stroke="none" stroke-width="1" fill="none" fill-rule="evenodd">
        <g id="弹框" transform="translate(-84.000000, -345.000000)" fill-rule="nonzero">
            <g id="下拉" filter="url(#filter-1)" transform="translate(52.000000, 50.000000)">
                <g id="icon" transform="translate(32.000000, 20.000000)">
                    <g id="icon-申请单" transform="translate(0.000000, 275.000000)">
                        <rect id="矩形" fill="#000000" opacity="0" x="0" y="0" width="16" height="16"></rect>
                        <path d="M13,1 L3,1 C2.7234375,1 2.5,1.2234375 2.5,1.5 L2.5,14.5 C2.5,14.7765625 2.7234375,15 3,15 L13,15 C13.2765625,15 13.5,14.7765625 13.5,14.5 L13.5,1.5 C13.5,1.2234375 13.2765625,1 13,1 Z M12.375,13.875 L3.625,13.875 L3.625,10.734375 L5.1546875,10.734375 C5.3359375,11.246875 5.6546875,11.7078125 6.078125,12.0578125 C6.6171875,12.503125 7.3,12.75 8,12.75 C8.7,12.75 9.3828125,12.5046875 9.921875,12.0578125 C10.3453125,11.7078125 10.6640625,11.246875 10.8453125,10.734375 L12.375,10.734375 L12.375,9.75 L10.05625,9.75 L9.975,10.1359375 C9.7875,11.0703125 8.95625,11.75 8,11.75 C7.04375,11.75 6.2125,11.0703125 6.0234375,10.1359375 L5.9421875,9.75 L3.625,9.75 L3.625,2.125 L12.375,2.125 L12.375,13.875 Z M5,5.328125 L11,5.328125 C11.06875,5.328125 11.125,5.271875 11.125,5.203125 L11.125,4.453125 C11.125,4.384375 11.06875,4.328125 11,4.328125 L5,4.328125 C4.93125,4.328125 4.875,4.384375 4.875,4.453125 L4.875,5.203125 C4.875,5.271875 4.93125,5.328125 5,5.328125 Z M5,7.828125 L11,7.828125 C11.06875,7.828125 11.125,7.771875 11.125,7.703125 L11.125,6.953125 C11.125,6.884375 11.06875,6.828125 11,6.828125 L5,6.828125 C4.93125,6.828125 4.875,6.884375 4.875,6.953125 L4.875,7.703125 C4.875,7.771875 4.93125,7.828125 5,7.828125 Z" id="形状" fill="#303030"></path>
                    </g>
                </g>
            </g>
        </g>
    </g>
</svg>